<svg width="143" height="127" viewBox="0 0 143 127" fill="none" xmlns="http://www.w3.org/2000/svg">
<mask id="path-1-outside-1_1_33" maskUnits="userSpaceOnUse" x="6" y="-1" width="130" height="128" fill="#fffffff">
<rect fill="white" x="6" y="-1" width="130" height="128"/>
<path fill-rule="evenodd" clip-rule="evenodd" d="M30.6125 11.3336C31.1702 7.22261 36.203 5.53991 39.1211 8.48879L57.6115 27.1742C61.9093 26.3513 66.3919 25.9158 71 25.9158C76.0065 25.9158 80.8649 26.4299 85.4991 27.3963L105.9 8.66351C108.894 5.9139 113.744 7.69734 114.244 11.7319L118.477 45.9114C125.107 53.552 129 62.8655 129 72.9158C129 98.8732 103.033 119.916 71 119.916C38.9675 119.916 13 98.8732 13 72.9158C13 61.5227 18.0026 51.0764 26.3248 42.9407L30.6125 11.3336Z"/>
</mask>
<path d="M39.1211 8.48879L44.0968 3.56509L44.0968 3.56509L39.1211 8.48879ZM30.6125 11.3336L37.549 12.2746L37.549 12.2746L30.6125 11.3336ZM57.6115 27.1742L52.6359 32.0979L55.2616 34.7514L58.9279 34.0493L57.6115 27.1742ZM85.4991 27.3963L84.0699 34.2489L87.5871 34.9824L90.2335 32.5524L85.4991 27.3963ZM105.9 8.66351L110.634 13.8195L110.634 13.8195L105.9 8.66351ZM114.244 11.7319L107.297 12.5922L107.297 12.5922L114.244 11.7319ZM118.477 45.9114L111.53 46.7717L111.792 48.8884L113.19 50.4993L118.477 45.9114ZM26.3248 42.9407L31.2182 47.9462L32.938 46.2649L33.2613 43.8816L26.3248 42.9407ZM44.0968 3.56509C37.0934 -3.51222 25.0144 0.526241 23.676 10.3926L37.549 12.2746C37.3259 13.919 35.3127 14.592 34.1455 13.4125L44.0968 3.56509ZM62.5872 22.2505L44.0968 3.56509L34.1455 13.4125L52.6359 32.0979L62.5872 22.2505ZM71 18.9158C65.951 18.9158 61.0276 19.393 56.2951 20.2991L58.9279 34.0493C62.791 33.3096 66.8328 32.9158 71 32.9158V18.9158ZM86.9282 20.5438C81.8227 19.479 76.4855 18.9158 71 18.9158V32.9158C75.5275 32.9158 79.907 33.3807 84.0699 34.2489L86.9282 20.5438ZM90.2335 32.5524L110.634 13.8195L101.165 3.50747L80.7646 22.2403L90.2335 32.5524ZM110.634 13.8195C109.437 14.9194 107.497 14.206 107.297 12.5922L121.191 10.8715C119.991 1.18868 108.352 -3.0916 101.165 3.50747L110.634 13.8195ZM107.297 12.5922L111.53 46.7717L125.424 45.051L121.191 10.8715L107.297 12.5922ZM136 72.9158C136 60.9812 131.361 50.0788 123.764 41.3235L113.19 50.4993C118.853 57.0253 122 64.7498 122 72.9158H136ZM71 126.916C105.451 126.916 136 104.043 136 72.9158H122C122 93.7038 100.614 112.916 71 112.916V126.916ZM6 72.9158C6 104.043 36.5486 126.916 71 126.916V112.916C41.3864 112.916 20 93.7038 20 72.9158H6ZM21.4314 37.9352C11.9662 47.1883 6 59.3711 6 72.9158H20C20 63.6744 24.0389 54.9646 31.2182 47.9462L21.4314 37.9352ZM23.676 10.3926L19.3883 41.9997L33.2613 43.8816L37.549 12.2746L23.676 10.3926Z" fill="white" mask="url(#path-1-outside-1_1_33)"/>
<mask id="path-3-outside-2_1_33" maskUnits="userSpaceOnUse" x="6" y="-1" width="130" height="128" fill="#fffffff">
<rect fill="#fffffff" x="6" y="-1" width="130" height="128"/>
<path fill-rule="evenodd" clip-rule="evenodd" d="M30.6125 11.3336C31.1702 7.22261 36.203 5.53991 39.1211 8.48879L57.6115 27.1742C61.9093 26.3513 66.3919 25.9158 71 25.9158C76.0065 25.9158 80.8649 26.4299 85.4991 27.3963L105.9 8.66351C108.894 5.9139 113.744 7.69734 114.244 11.7319L118.477 45.9114C125.107 53.552 129 62.8655 129 72.9158C129 98.8732 103.033 119.916 71 119.916C38.9675 119.916 13 98.8732 13 72.9158C13 61.5227 18.0026 51.0764 26.3248 42.9407L30.6125 11.3336Z"/>
</mask>
<path d="M39.1211 8.48879L44.0968 3.56509L44.0968 3.56509L39.1211 8.48879ZM30.6125 11.3336L37.549 12.2746L37.549 12.2746L30.6125 11.3336ZM57.6115 27.1742L52.6359 32.0979L55.2616 34.7514L58.9279 34.0493L57.6115 27.1742ZM85.4991 27.3963L84.0699 34.2489L87.5871 34.9824L90.2335 32.5524L85.4991 27.3963ZM105.9 8.66351L110.634 13.8195L110.634 13.8195L105.9 8.66351ZM114.244 11.7319L107.297 12.5922L107.297 12.5922L114.244 11.7319ZM118.477 45.9114L111.53 46.7717L111.792 48.8884L113.19 50.4993L118.477 45.9114ZM26.3248 42.9407L31.2182 47.9462L32.938 46.2649L33.2613 43.8816L26.3248 42.9407ZM44.0968 3.56509C37.0934 -3.51222 25.0144 0.526241 23.676 10.3926L37.549 12.2746C37.3259 13.919 35.3127 14.592 34.1455 13.4125L44.0968 3.56509ZM62.5872 22.2505L44.0968 3.56509L34.1455 13.4125L52.6359 32.0979L62.5872 22.2505ZM71 18.9158C65.951 18.9158 61.0276 19.393 56.2951 20.2991L58.9279 34.0493C62.791 33.3096 66.8328 32.9158 71 32.9158V18.9158ZM86.9282 20.5438C81.8227 19.479 76.4855 18.9158 71 18.9158V32.9158C75.5275 32.9158 79.907 33.3807 84.0699 34.2489L86.9282 20.5438ZM90.2335 32.5524L110.634 13.8195L101.165 3.50747L80.7646 22.2403L90.2335 32.5524ZM110.634 13.8195C109.437 14.9194 107.497 14.206 107.297 12.5922L121.191 10.8715C119.991 1.18868 108.352 -3.0916 101.165 3.50747L110.634 13.8195ZM107.297 12.5922L111.53 46.7717L125.424 45.051L121.191 10.8715L107.297 12.5922ZM136 72.9158C136 60.9812 131.361 50.0788 123.764 41.3235L113.19 50.4993C118.853 57.0253 122 64.7498 122 72.9158H136ZM71 126.916C105.451 126.916 136 104.043 136 72.9158H122C122 93.7038 100.614 112.916 71 112.916V126.916ZM6 72.9158C6 104.043 36.5486 126.916 71 126.916V112.916C41.3864 112.916 20 93.7038 20 72.9158H6ZM21.4314 37.9352C11.9662 47.1883 6 59.3711 6 72.9158H20C20 63.6744 24.0389 54.9646 31.2182 47.9462L21.4314 37.9352ZM23.676 10.3926L19.3883 41.9997L33.2613 43.8816L37.549 12.2746L23.676 10.3926Z" fill="white" mask="url(#path-3-outside-2_1_33)"/>
<path d="M137.212 44.5H5.59035C3.29769 44.5 1.62413 46.6675 2.20424 48.8856L9.65808 77.3856C10.0609 78.9257 11.4523 80 13.0442 80H52.7989C54.0925 80 55.2807 79.2864 55.8885 78.1445L70.1809 51.2919C70.3627 50.9506 70.8465 50.9359 71.0486 51.2656L87.6358 78.329C88.2722 79.3671 89.4023 80 90.62 80H127.565C129.066 80 130.4 79.0434 130.881 77.6221L140.527 49.1221C141.295 46.8528 139.607 44.5 137.212 44.5Z" stroke="white" stroke-width="3"/>
<path d="M54.5896 74.2323C53.9236 75.6184 52.5219 76.5 50.9841 76.5L16.7078 76.5C15.0724 76.5 13.6016 75.5044 12.9941 73.9859L4.78745 53.4752C3.73574 50.8467 5.67263 47.9875 8.50373 47.9893L60.8258 48.0222C63.7708 48.0241 65.7041 51.1001 64.4287 53.7546L54.5896 74.2323Z" fill="#A90000"/>
<path d="M73.5144 99.3376C72.3407 100.516 70.4321 100.515 69.2599 99.3349L62.0928 92.1186C60.2122 90.2251 61.5546 87.0029 64.2233 87.0045L78.5665 87.0136C81.2352 87.0153 82.5735 90.2392 80.6905 92.1303L73.5144 99.3376Z" fill="white"/>
<path d="M127.604 74.2835C126.928 75.6416 125.541 76.5 124.024 76.5L94.1829 76.5C92.8223 76.5 91.5551 75.8084 90.8189 74.6642L77.6297 54.1639C75.9164 51.501 77.8297 47.9977 80.9961 47.9997L134.221 48.0332C137.191 48.0351 139.123 51.1584 137.799 53.8167L127.604 74.2835Z" fill="#0070A3"/>
<path d="M72 99.6022V99.6022C77.2437 106.704 88.0179 106.209 92.5891 98.6572L94.5 95.5" stroke="white" stroke-width="3" stroke-linecap="round"/>
<path d="M48.9695 97.4439V97.4439C52.5386 105.518 63.1614 107.385 69.2692 101.011L71.8226 98.3462" stroke="white" stroke-width="3" stroke-linecap="round"/>
</svg>
